<svg xmlns="http://www.w3.org/2000/svg" viewBox="0 0 512 512" width="512" height="512">
  <rect width="512" height="512" fill="#0A0A0A"/>
  <g transform="translate(152, 60) scale(4.1)">
    <path d="M32 100 C10 80 0 55 12 35 C18 25 24 38 26 45 C28 30 35 10 50 0 C45 20 48 30 52 38 C56 20 60 28 62 40 C68 28 72 40 70 58 C68 75 60 88 50 100 Z"
          fill="#FF6B00"/>
    <path d="M50 100 C38 85 32 68 38 52 C42 42 46 50 48 58 C50 48 54 38 58 48 C62 60 60 78 50 100 Z"
          fill="#FFF5E0"/>
  </g>
</svg>
