<svg xmlns="http://www.w3.org/2000/svg" viewBox="0 0 512 512" width="512" height="512">
  <defs>
    <linearGradient id="flame" x1="0" y1="1" x2="0" y2="0">
      <stop offset="0%" stop-color="#FF6B00"/>
      <stop offset="100%" stop-color="#FFF5E0"/>
    </linearGradient>
  </defs>
  <rect width="512" height="512" rx="100" fill="#0A0A0A"/>
  <g transform="translate(156, 106)">
    <path d="M100 300 C100 300 20 180 50 90 C60 60 80 75 85 105 C90 135 60 150 70 105 C76 75 110 30 120 75 C130 120 90 165 100 195 C110 225 140 180 130 135 C124 105 150 60 160 105 C170 150 100 300 100 300Z" fill="url(#flame)"/>
  </g>
</svg>
